<svg height="50" viewBox="0 -13 512.16658 512" width="50" xmlns="http://www.w3.org/2000/svg"><path d="m340.050781 95.144531-2.304687 17.066407c-.59375 4.210937-4.195313 7.339843-8.445313 7.339843h-146.433593c-4.25 0-7.851563-3.128906-8.449219-7.339843l-2.300781-17.066407c-.347657-2.445312.382812-4.921875 2.003906-6.789062 1.621094-1.867188 3.972656-2.9375 6.441406-2.9375h151.039062c2.472657 0 4.824219 1.070312 6.445313 2.9375 1.617187 1.867187 2.351563 4.34375 2.003906 6.789062zm0 0" fill="#bfa885"/><path d="m315.730469 95.144531-2.386719 17.066407c-.574219 4.21875-4.191406 7.359374-8.449219 7.339843h-122.027343c-4.25 0-7.851563-3.128906-8.449219-7.339843l-2.300781-17.066407c-.347657-2.445312.382812-4.921875 2.003906-6.789062 1.621094-1.867188 3.972656-2.9375 6.441406-2.9375h126.722656c2.46875 0 4.820313 1.070312 6.441406 2.9375 1.617188 1.867187 2.351563 4.34375 2.003907 6.789062zm0 0" fill="#ffecb3"/><path d="m187.816406 119.550781h136.535156v42.664063h-136.535156zm0 0" fill="#4e342e"/><path d="m187.816406 119.550781h110.933594v42.664063h-110.933594zm0 0" fill="#795548"/><path d="m161.960938 367.015625-8.277344 34.132813h-136.535156c-4.710938 0-8.53125-3.820313-8.53125-8.53125v-17.066407c0-4.714843 3.820312-8.535156 8.53125-8.535156zm0 0" fill="#bfa885"/><path d="m503.550781 375.550781v17.066407c0 4.710937-3.820312 8.53125-8.535156 8.53125h-136.53125l-8.277344-34.132813h144.808594c4.714844 0 8.535156 3.820313 8.535156 8.535156zm0 0" fill="#795548"/><path d="m170.152344 332.882812-8.191406 34.132813h-127.746094v-25.597656c0-4.714844 3.824218-8.535157 8.535156-8.535157zm0 0" fill="#ffecb3"/><path d="m477.949219 341.417969v25.597656h-127.742188l-8.191406-34.132813h127.402344c4.710937 0 8.53125 3.820313 8.53125 8.535157zm0 0" fill="#bfa885"/><path d="m178.429688 298.75-8.277344 34.132812h-110.335938v-25.597656c0-4.714844 3.820313-8.535156 8.535156-8.535156zm0 0" fill="#bfa885"/><path d="m452.351562 307.285156v25.597656h-110.335937l-8.277344-34.132812h110.078125c4.714844 0 8.535156 3.820312 8.535156 8.535156zm0 0" fill="#795548"/><path d="m186.621094 264.617188-8.191406 34.132812h-93.011719v-25.601562c0-4.710938 3.820312-8.53125 8.53125-8.53125zm0 0" fill="#ffecb3"/><path d="m426.75 273.148438v25.601562h-93.011719l-8.195312-34.132812h92.671875c4.714844 0 8.535156 3.820312 8.535156 8.53125zm0 0" fill="#bfa885"/><path d="m194.898438 230.484375-8.277344 34.132813h-75.605469v-25.601563c0-4.710937 3.820313-8.53125 8.535156-8.53125zm0 0" fill="#bfa885"/><path d="m401.148438 239.015625v25.601563h-75.605469l-8.277344-34.132813h75.351563c4.710937 0 8.53125 3.820313 8.53125 8.53125zm0 0" fill="#795548"/><path d="m203.089844 196.351562-8.191406 34.132813h-58.28125v-25.601563c0-4.710937 3.820312-8.53125 8.53125-8.53125zm0 0" fill="#ffecb3"/><path d="m375.550781 204.882812v25.601563h-58.285156l-8.191406-34.132813h57.941406c4.714844 0 8.535156 3.820313 8.535156 8.53125zm0 0" fill="#bfa885"/><path d="m452.351562 341.417969v25.597656h-102.144531l-8.191406-34.132813h101.800781c4.714844 0 8.535156 3.820313 8.535156 8.535157zm0 0" fill="#ffecb3"/><path d="m401.148438 273.148438v25.601562h-67.410157l-8.195312-34.132812h67.074219c4.710937 0 8.53125 3.820312 8.53125 8.53125zm0 0" fill="#ffecb3"/><path d="m349.949219 204.882812v25.601563h-32.683594l-8.191406-34.132813h32.34375c4.710937 0 8.53125 3.820313 8.53125 8.53125zm0 0" fill="#ffecb3"/><path d="m358.484375 401.148438h-204.800781l8.277344-34.132813 8.191406-34.132813 8.277344-34.132812 8.191406-34.132812 8.277344-34.132813 8.191406-34.132813 8.277344-34.136718h89.429687l8.277344 34.136718 8.191406 34.132813 8.277344 34.132813 8.195312 34.132812 8.277344 34.132812 8.191406 34.132813zm0 0" fill="#4e342e"/><path d="m315.816406 401.148438h-119.464844l4.828126-34.132813 4.777343-34.132813 4.832031-34.132812 4.777344-34.132812 4.832032-34.132813 4.769531-34.132813 4.828125-34.136718h52.171875l4.832031 34.136718 4.769531 34.132813 4.828125 34.132813 4.78125 34.132812 4.828125 34.132812 4.78125 34.132813zm0 0" fill="#bfa885"/><path d="m211.367188 162.214844-8.277344 34.136718h-40.875v-25.601562c0-4.710938 3.824218-8.535156 8.535156-8.535156zm0 0" fill="#bfa885"/><path d="m349.949219 170.75v25.601562h-40.875l-8.277344-34.136718h40.621094c4.710937 0 8.53125 3.824218 8.53125 8.535156zm0 0" fill="#795548"/><g fill="#bfa885"><path d="m477.949219 375.550781v17.066407c0 4.710937-3.820313 8.53125-8.53125 8.53125h-110.933594l-8.277344-34.132813h119.210938c4.710937 0 8.53125 3.820313 8.53125 8.535156zm0 0"/><path d="m426.75 307.285156v25.597656h-84.734375l-8.277344-34.132812h84.476563c4.714844 0 8.535156 3.820312 8.535156 8.535156zm0 0"/><path d="m375.550781 239.015625v25.601563h-50.007812l-8.277344-34.132813h49.75c4.714844 0 8.535156 3.820313 8.535156 8.53125zm0 0"/><path d="m324.351562 170.75v25.601562h-15.277343l-8.277344-34.136718h15.019531c4.714844 0 8.535156 3.824218 8.535156 8.535156zm0 0"/></g><path d="m136.617188 452.351562c.046874 11.289063-7.355469 21.261719-18.175782 24.488282-2.410156.722656-4.910156 1.09375-7.425781 1.109375h-76.800781c-14.136719 0-25.597656-11.460938-25.597656-25.597657.015624-2.515624.386718-5.015624 1.109374-7.425781 2.921876-9.679687 11.292969-16.714843 21.332032-17.917969 1.042968-.171874 2.101562-.257812 3.15625-.257812.71875-.027344 1.433594.027344 2.136718.171875.558594-1.617187 1.242188-3.1875 2.046876-4.695313 6.960937-13.71875 21.441406-21.957031 36.792968-20.933593 15.351563 1.019531 28.609375 11.105469 33.691406 25.628906.703126-.144531 1.417969-.199219 2.132813-.171875 14.140625 0 25.601563 11.460938 25.601563 25.601562zm0 0" fill="#558b30"/><path d="m503.550781 452.351562c.046875 11.289063-7.355469 21.261719-18.175781 24.488282-2.410156.722656-4.910156 1.09375-7.425781 1.109375h-76.800781c-14.136719 0-25.597657-11.460938-25.597657-25.597657.015625-2.515624.386719-5.015624 1.109375-7.425781 2.921875-9.679687 11.292969-16.714843 21.332032-17.917969 1.042968-.171874 2.101562-.257812 3.15625-.257812.71875-.027344 1.433593.027344 2.136718.171875.554688-1.617187 1.242188-3.1875 2.046875-4.695313 6.960938-13.71875 21.441407-21.957031 36.792969-20.933593 15.351562 1.019531 28.609375 11.105469 33.691406 25.628906.703125-.144531 1.417969-.199219 2.132813-.171875 14.140625 0 25.601562 11.460938 25.601562 25.601562zm0 0" fill="#558b30"/><path d="m119.550781 469.417969c-.015625 2.511719-.390625 5.011719-1.109375 7.421875-2.410156.722656-4.910156 1.09375-7.425781 1.109375h-76.800781c-14.136719 0-25.597656-11.460938-25.597656-25.597657.015624-2.515624.386718-5.015624 1.109374-7.425781 2.410157-.71875 4.910157-1.09375 7.421876-1.109375.71875-.027344 1.433593.03125 2.136718.171875 2.28125-6.640625 6.355469-12.519531 11.773438-16.980469 2.25-1.878906 4.714844-3.480468 7.339844-4.78125 9.882812-4.902343 21.398437-5.328124 31.617187-1.164062 10.21875 4.160156 18.15625 12.511719 21.800781 22.925781.703125-.140625 1.417969-.199219 2.132813-.171875 14.140625 0 25.601562 11.460938 25.601562 25.601563zm0 0" fill="#4caf50"/><path d="m486.484375 469.417969c-.015625 2.511719-.390625 5.011719-1.109375 7.421875-2.410156.722656-4.910156 1.09375-7.425781 1.109375h-76.800781c-14.136719 0-25.597657-11.460938-25.597657-25.597657.015625-2.515624.386719-5.015624 1.109375-7.425781 2.410156-.71875 4.910156-1.09375 7.421875-1.109375.714844-.027344 1.433594.03125 2.132813.171875 2.285156-6.640625 6.359375-12.519531 11.777344-16.980469 2.25-1.878906 4.714843-3.480468 7.339843-4.78125 9.882813-4.902343 21.398438-5.328124 31.617188-1.164062 10.21875 4.160156 18.15625 12.511719 21.800781 22.925781.703125-.140625 1.417969-.199219 2.132812-.171875 14.140626 0 25.601563 11.460938 25.601563 25.601563zm0 0" fill="#4caf50"/><path d="m85.417969 47.015625c.011719 10.191406-4.027344 19.964844-11.234375 27.167969-7.203125 7.207031-16.976563 11.246094-27.167969 11.234375-4.363281.011719-8.695313-.738281-12.800781-2.21875-15.308594-5.445313-25.535156-19.933594-25.535156-36.183594 0-16.246094 10.226562-30.738281 25.535156-36.179687 4.105468-1.480469 8.4375-2.234376 12.800781-2.21875 10.191406-.015626 19.964844 4.027343 27.167969 11.230468 7.207031 7.207032 11.246094 16.980469 11.234375 27.167969zm0 0" fill="#ffb301"/><path d="m59.816406 47.015625c0-19.980469-11.460937-36.179687-25.601562-36.179687-14.136719 0-25.597656 16.199218-25.597656 36.179687 0 19.984375 11.460937 36.183594 25.597656 36.183594 14.140625 0 25.601562-16.199219 25.601562-36.183594zm0 0" fill="#ffeb3a"/><path d="m495.015625 358.484375h-8.53125v-17.066406c0-9.425781-7.640625-17.066407-17.066406-17.066407h-8.535157v-17.066406c0-9.425781-7.640624-17.070312-17.066406-17.070312h-8.53125v-17.066406c0-9.425782-7.644531-17.066407-17.070312-17.066407h-8.53125v-17.066406c0-9.425781-7.640625-17.066406-17.066406-17.066406h-8.535157v-17.066407c0-9.425781-7.640625-17.066406-17.066406-17.066406h-8.53125v-17.066406c0-9.425781-7.640625-17.066406-17.066406-17.066406h-8.535157v-26.027344c6.984376-1.53125 12.28125-7.234375 13.296876-14.308594l2.34375-17.066406c.675781-4.886719-.796876-9.824219-4.035157-13.542969-3.238281-3.714843-7.929687-5.851562-12.859375-5.855469h-151.089844c-4.933593.003907-9.621093 2.140626-12.859374 5.855469-3.238282 3.71875-4.710938 8.65625-4.039063 13.542969l2.347656 17.066406c1.011719 7.074219 6.3125 12.777344 13.296875 14.308594v26.027344h-8.535156c-9.425781 0-17.066406 7.640625-17.066406 17.066406v17.066406h-8.535156c-9.425782 0-17.066407 7.640625-17.066407 17.066406v17.066407h-8.53125c-9.425781 0-17.066406 7.640625-17.066406 17.066406v17.066406h-8.535156c-9.425781 0-17.066407 7.640625-17.066407 17.066407v17.066406h-8.53125c-9.425781 0-17.066406 7.644531-17.066406 17.070312v17.066406h-8.535156c-9.425781 0-17.066406 7.640626-17.066406 17.066407v17.066406h-8.535156c-9.425782 0-17.0664068 7.640625-17.0664068 17.066406v17.066407c0 9.425781 7.6406248 17.066406 17.0664068 17.066406h19.398437c-2.273437 2.730468-4.226563 5.710937-5.820313 8.882812-18.101562 1.769532-31.613281 17.460938-30.679687 35.625.933594 18.164063 15.980469 32.386719 34.167969 32.292969h76.800781c18.191406.09375 33.238281-14.128906 34.171875-32.292969.933594-18.164062-12.578125-33.855468-30.679688-35.625-1.59375-3.171875-3.546874-6.152344-5.820312-8.882812h294.792969c-2.273438 2.730468-4.226563 5.710937-5.820313 8.882812-18.101562 1.769532-31.613281 17.460938-30.679687 35.625.933593 18.164063 15.980469 32.386719 34.167969 32.292969h76.800781c18.1875.09375 33.238281-14.128906 34.171875-32.292969.933594-18.164062-12.578125-33.855468-30.679688-35.625-1.59375-3.171875-3.546875-6.152344-5.820312-8.882812h19.394531c9.425781 0 17.066406-7.640625 17.066406-17.066406v-17.066407c0-9.425781-7.640625-17.066406-17.066406-17.066406zm-25.597656 0h-112.453125l-4.027344-16.667969-.09375-.398437h116.574219zm-25.601563-34.132813h-95.09375l-.957031-3.96875-3.167969-13.097656h99.21875zm-25.601562-34.136718h-77.738282l-3.128906-12.984375-.984375-4.082031h81.851563zm-25.597656-34.132813h-60.367188l-3.273438-13.507812-.855468-3.558594h64.496094zm-25.601563-34.132812h-43.015625l-1-4.136719-3.097656-12.929688h47.113281zm-25.597656-34.132813h-25.601563l-4.128906-17.066406h29.730469zm-9.789063-93.867187-2.355468 17.066406h-146.378907l-2.355469-17.066406zm-135.277344 34.132812h119.464844v25.601563h-119.464844zm-25.601562 42.667969h29.765625l-4.164063 17.066406h-25.601562zm-25.601562 34.132812h47.113281l-3.132813 13.074219-.960937 3.992188h-43.019531zm-25.597657 34.132813h64.492188l-.605469 2.5625-3.523438 14.503906h-60.363281zm-25.601562 34.132813h81.851562l-1.089843 4.542968-3.023438 12.523438h-77.738281zm-25.597657 34.136718h99.214844l-3.113281 12.910156-1.007813 4.15625h-95.09375zm-25.601562 34.132813h116.574219l-.230469.980469-3.890625 16.085937h-112.453125zm-25.601562 34.132812h133.976562l-4.125 17.066407h-129.851562zm83.679687 54.167969c.292969.859375.722656 1.660156 1.269531 2.382812.605469.769532 1.339844 1.425782 2.167969 1.945313.371094.222656.761719.417969 1.160156.578125.453125.214844.925781.382812 1.410157.511719.53125.144531 1.078124.226562 1.628906.257812.144531 0 .273437.066407.417968.066407.144532 0 .4375-.101563.648438-.109376.496094.023438.992188 0 1.484375-.066406 9.425781 0 17.066406 7.640625 17.066406 17.066406 0 9.425782-7.640625 17.066407-17.066406 17.066407h-76.800781c-9.449219-.019531-17.09375-7.695313-17.074219-17.144531.019531-9.449219 7.695313-17.09375 17.144531-17.074219.472656.117187.957032.195312 1.441406.238281 6.835938.480469 12.671876 5.105469 14.703126 11.648438 1.671874 4.136718 6.253906 6.285156 10.503906 4.929687 4.253906-1.355469 6.742187-5.757813 5.710937-10.101563-2.855469-9-9.359375-16.386718-17.921875-20.359374 6.636719-8.804688 17.585938-13.234376 28.476563-11.523438 10.890625 1.707031 19.953125 9.277344 23.578125 19.6875zm64.078125-38.628906 5.339844-22.058594 5-20.8125 6.964844-28.878906 4.503906-18.550782 5.121094-21.289062 7.542968-31.25 3.804688-15.703125 3.722656-15.519531 10.613281-43.964844.554688-2.3125h2.109375l-31.25 221.867188h-24.40625zm41.265625 1.527344 31.242187-221.867188h37.339844l31.242188 221.867188zm117.058594 0-31.246094-221.867188h2.105469l.539062 2.234375 10.613282 43.964844 3.722656 15.523437 3.804687 15.699219 7.542969 31.25 5.121094 21.289063 4.503906 18.554687 6.964844 28.875 5 20.8125 5.34375 22.058594.375 1.527343zm140.210937 28.9375c-8.5625 3.972656-15.0625 11.359374-17.917968 20.359374-1.429688 4.492188 1.058593 9.292969 5.550781 10.722657 4.492187 1.425781 9.292969-1.058594 10.722656-5.550781 2.027344-6.53125 7.847656-11.15625 14.667969-11.648438.5-.015625.996094-.066406 1.484375-.152344 9.425781 0 17.066406 7.640625 17.066406 17.066406 0 9.425782-7.640625 17.066407-17.066406 17.066407h-76.800781c-9.449219-.019531-17.09375-7.695313-17.074219-17.144531.019531-9.449219 7.695312-17.09375 17.144531-17.074219.449219.058593.902344.082031 1.355469.066406.542969.074219 1.09375.097656 1.640625.070313 1.628906-.121094 3.167968-.796876 4.359375-1.914063.453125-.332031.871093-.707031 1.246093-1.125.332032-.445313.617188-.921875.851563-1.425781.257813-.363282.484375-.75.675781-1.152344 3.621094-10.410156 12.6875-17.980469 23.578125-19.6875 10.890625-1.710938 21.835938 2.71875 28.476563 11.523438zm31.574219-28.9375h-129.816406l-4.15625-17.066407h133.972656zm0 0"/><path d="m47.015625 93.949219c25.921875 0 46.933594-21.011719 46.933594-46.933594 0-25.917969-21.011719-46.9335938-46.933594-46.9335938-25.917969 0-46.9335938 21.0156248-46.9335938 46.9335938.0312498 25.910156 21.0273438 46.90625 46.9335938 46.933594zm0-76.800781c16.496094 0 29.867187 13.375 29.867187 29.867187 0 16.496094-13.371093 29.867187-29.867187 29.867187-16.492187 0-29.867187-13.371093-29.867187-29.867187 0-16.492187 13.375-29.867187 29.867187-29.867187zm0 0"/><path d="m341.417969 443.816406c0-4.710937-3.820313-8.53125-8.535157-8.53125h-85.332031c-4.714843 0-8.535156 3.820313-8.535156 8.53125 0 4.714844 3.820313 8.535156 8.535156 8.535156h85.332031c4.714844 0 8.535157-3.820312 8.535157-8.535156zm0 0"/><path d="m162.214844 477.949219c0 4.714843 3.824218 8.535156 8.535156 8.535156h76.800781c4.710938 0 8.53125-3.820313 8.53125-8.535156 0-4.710938-3.820312-8.53125-8.53125-8.53125h-76.800781c-4.710938 0-8.535156 3.820312-8.535156 8.53125zm0 0"/><path d="m290.214844 469.417969c-4.710938 0-8.53125 3.820312-8.53125 8.53125 0 4.714843 3.820312 8.535156 8.53125 8.535156h17.070312c4.710938 0 8.53125-3.820313 8.53125-8.535156 0-4.710938-3.820312-8.53125-8.53125-8.53125zm0 0"/></svg>